<svg id="Layer_1" data-name="Layer 1" xmlns="http://www.w3.org/2000/svg" viewBox="0 0 193.69 93.07"><defs><style>.cls-1,.cls-2{fill:#958166}.cls-1,.cls-3{fill-rule:evenodd}.cls-3{fill:#112c4f}</style></defs><title>Монтажная область 1</title><path class="cls-1" d="M68.5 53.49q0 .33-.11.65l10.2 2.68q.24-1.21.39-2.46l-10.48-.87zM7.28 45.52l10.47.85q0-.33.1-.65L7.67 43.06q-.23 1.21-.39 2.46zM68 56.12q-.08.32-.18.63l9.86 3.73q.36-1.18.65-2.4L68 56.12zm-.79 2.57l-.21.61 9.39 4.7q.48-1.14.89-2.32l-10.07-3zm-1.05 2.47l-.3.58 8.87 5.7q.6-1.08 1.13-2.22l-9.7-4.06zm-1.29 2.34l-.37.5 8.23 6.59q.71-1 1.36-2.09l-9.22-5zm-1.54 2.2l-.42.51 7.49 7.42q.81-.93 1.57-1.93l-8.64-6zM14.29 28.19l8.64 6 .41-.51-7.49-7.4q-.81.93-1.57 1.94zm47.28 39.53l-.47.46 6.68 8.16q.9-.84 1.76-1.76l-8-6.86zM16.73 25.29l8 6.85.47-.47-6.68-8.14q-.9.84-1.76 1.76zm42.88 44.26l-.51.45 5.79 8.81q1-.74 1.94-1.57l-7.21-7.66zM19.45 22.67l7.21 7.64.51-.41-5.79-8.8q-1 .75-1.93 1.57zm38.02 48.5l-.55.35 4.83 9.37q1.06-.64 2.09-1.35l-6.37-8.37zM22.43 20.34l6.37 8.36.55-.36L24.51 19q-1.06.64-2.09 1.36zm32.74 52.21l-.59.29 3.83 9.82q1.12-.52 2.22-1.13l-5.46-9zM25.63 18.34l5.47 9 .59-.3-3.83-9.81q-1.12.52-2.22 1.13zm27.11 55.35l-.62.23 2.78 10.17q1.17-.4 2.33-.89l-4.49-9.51zM29 16.68l4.5 9.5.61-.24-2.75-10.15q-1.17.4-2.32.89zm21.21 57.88l-.64.16 1.7 10.4q1.21-.28 2.41-.64l-3.47-9.93zM32.59 15.39l3.48 9.92.64-.17L35 14.74q-1.2.28-2.4.65zM47.6 75.17l-.65.1.6 10.53q1.23-.15 2.46-.39L47.6 75.17zm-8.02.14l-.65-.11-2.67 10.2q1.21.24 2.46.39l.87-10.48zm-2.63-.51l-.63-.18-3.73 9.86q1.18.36 2.4.65l2-10.33zm14.32-60.05l-1.94 10.32.64.17 3.71-9.86q-1.18-.36-2.41-.64zM34.38 74l-.61-.24L29 83.19q1.14.48 2.32.89l3-10.07zm20.53-58.21l-3 10.07.61.24 4.72-9.41q-1.14-.48-2.33-.89zM31.92 73l-.58-.3-5.7 8.87q1.08.6 2.22 1.13l4.06-9.7zm26.49-55.79l-4 9.7.59.3 5.68-8.87q-1.08-.6-2.22-1.13zM29.57 71.67l-.57-.36-6.59 8.23q1 .71 2.09 1.36l5.05-9.22zM61.75 19l-5 9.22.55.36 6.58-8.23q-1-.71-2.09-1.35zM27.37 70.14l-.51-.42-7.42 7.49q.93.81 1.93 1.57l6-8.64zM64.88 21.1l-6 8.64.51.41 7.4-7.49q-.93-.81-1.94-1.57zM25.35 68.38l-.46-.47-8.16 6.68q.84.9 1.76 1.76l6.86-8zm42.43-44.85l-6.85 8 .47.47 8.14-6.68q-.84-.9-1.76-1.76zM23.52 66.42l-.41-.51-8.81 5.78q.74 1 1.57 1.94l7.66-7.21zM70.4 26.25l-7.64 7.21.41.51L72 28.19q-.75-1-1.57-1.93zM21.9 64.28l-.35-.55-9.37 4.83q.64 1.06 1.35 2.09l8.37-6.37zM20.52 62l-.29-.59-9.83 3.81q.52 1.12 1.13 2.22l9-5.46zm-1.14-2.45l-.23-.62L9 61.71q.4 1.17.89 2.33l9.51-4.49zM18.51 57q-.09-.32-.16-.64l-10.4 1.7q.28 1.21.64 2.41L18.51 57zm-.6-2.6l-.1-.65-10.53.6q.15 1.23.39 2.46l10.24-2.41zm60.68-11.34l-10.22 2.43q.06.33.1.65L79 45.52q-.15-1.23-.39-2.46zm-61.01 8.68v-.66L7 50.58q0 1.24.13 2.49l10.43-1.33zm61.54-4.93l-10.43 1.34v.66l10.52.49q0-1.24-.13-2.49zm-61.59 2.25v-.66L7.15 46.81Q7 48 7 49.29l10.51-.23zm61.72 1.52l-10.51.25v.66l10.41 1.58q.11-1.23.13-2.49z"/><path class="cls-2" d="M43.13 81l-1.9-1.4a9 9 0 0 1-3-4.34 6.78 6.78 0 0 1-2.28.4 7.38 7.38 0 0 1-4.77-1.83L27.05 70l5.37-1.63a9.53 9.53 0 0 0 4.13-2.77 10 10 0 0 0 .67-1l-.13-.2a11.41 11.41 0 0 0-6.92-4.6 9 9 0 0 1-5.53-3.51 8.16 8.16 0 0 1-7.46-5.92 7.32 7.32 0 0 1 .21-5 6.44 6.44 0 0 1-.72-1.09c-6.75.3-11.11-4-11.11-10.77v-4.66l4.37 1.71c1.46.57 9.27 3.47 16.35 3.33h.44a18.63 18.63 0 0 1 11.77 4.27 9.72 9.72 0 0 1 2.74-3.39l1.9-1.4 1.9 1.4a9.74 9.74 0 0 1 2.71 3.34 19.28 19.28 0 0 1 11.81-4.22h1c6.84 0 13.75-2.55 15.71-3.33l4.38-1.75v4.72c0 6.89-4.27 11.07-11.11 10.77a6.45 6.45 0 0 1-.72 1.09 7.32 7.32 0 0 1 .21 5 8.16 8.16 0 0 1-7.46 5.91 9 9 0 0 1-5.53 3.51 11.42 11.42 0 0 0-6.93 4.6l-.13.2a10.26 10.26 0 0 0 .67 1 9.51 9.51 0 0 0 4.14 2.78L59.23 70l-4.17 3.79a7.36 7.36 0 0 1-6.88 1.47h-.16a9 9 0 0 1-3 4.33zm-3.87-7.77l.19.9a7.59 7.59 0 0 0 2.65 4.3l1 .76 1-.76a7.57 7.57 0 0 0 2.64-4.27l.18-.86.81.35a7 7 0 0 0 .78.28 6 6 0 0 0 1.68.24 5.84 5.84 0 0 0 3.81-1.4l2.28-2.07-2.94-.89a10.86 10.86 0 0 1-4.88-3.3 12.12 12.12 0 0 1-1-1.6l-.2-.38.74-.93a12.84 12.84 0 0 1 7.77-5.21c2.41-.63 4-1.71 4.86-3.19l.22-.41h.46A6.63 6.63 0 0 0 67.69 50a5.86 5.86 0 0 0-.33-4.36l-.23-.46.35-.37a4.93 4.93 0 0 0 1-1.49l.2-.49h.53c6.22.49 10-3.08 10-9.29V31l-2.39 1c-2.08.83-9.59 3.6-16.9 3.43h-.39a18 18 0 0 0-11.62 4.48l-.78.67-.37-1a8.45 8.45 0 0 0-2.62-3.59l-1-.76-1 .77a8.45 8.45 0 0 0-2.64 3.66l-.37 1-.79-.7a17.37 17.37 0 0 0-12-4.54h-.64c-7.16 0-14.83-2.86-16.29-3.44L7 31v2.56c0 5.67 3.52 9.33 9 9.33h1.61l.2.49a5 5 0 0 0 1 1.49l.35.37-.23.46a5.86 5.86 0 0 0-.35 4.3 6.67 6.67 0 0 0 6.09 4.88h.79l.22.41c.81 1.49 2.45 2.56 4.86 3.19a12.83 12.83 0 0 1 7.77 5.21l.61.92-.2.38a12 12 0 0 1-1 1.6 10.94 10.94 0 0 1-4.87 3.29l-2.94.9 2.26 2.07A5.85 5.85 0 0 0 36 74.19a5.33 5.33 0 0 0 1.82-.32c.22-.08.44-.17.65-.27z"/><path class="cls-3" d="M59.91 37.09c-7.17-.17-13.15 4.85-14.62 9.38a13 13 0 0 0 .21-5.08 6.8 6.8 0 0 0-2.36-4 6.8 6.8 0 0 0-2.36 4 13 13 0 0 0 .22 5.08c-1.71-4.65-7.44-9.55-14.62-9.38-7.58.18-16.27-2.11-17.59-3.55 0 5.91 4.07 9.07 11.54 6.91-2.21.64-.72 3.94 1.84 4.09-5.26 3.46.45 11.06 4.83 7.71 0 0-1.26 3.08 4 4.45a14.59 14.59 0 0 1 8.78 5.93c.95-5.56-1.42-9.87-7.12-9a4.62 4.62 0 0 0 2.67-5.4c-.89-4-5.24-5.2-7.3-3.09 1.37-.3 5.16 2.08 2.73 4.33s-7.3-2.31-5.4-5.58 6-2.56 8.72-.71c6.76 4.52 9.41 14.82 6.47 22a14.2 14.2 0 0 1-1.41 2.38 12.66 12.66 0 0 1-5.77 3.93 4.19 4.19 0 0 0 3.83.77 10 10 0 0 0 4.12-3 11 11 0 0 0-.18 4.32 5.77 5.77 0 0 0 2 3.42 5.78 5.78 0 0 0 2-3.42 11 11 0 0 0-.14-4.31 10.49 10.49 0 0 0 4.12 3 3.5 3.5 0 0 0 3.83-.77 12.66 12.66 0 0 1-5.77-3.93 14.2 14.2 0 0 1-1.41-2.38c-2.94-7.16-.29-17.46 6.47-22 2.76-1.84 6.82-2.55 8.72.71s-3 7.83-5.4 5.58 1.36-4.63 2.73-4.33c-2.06-2.12-6.41-.89-7.3 3.09a4.62 4.62 0 0 0 2.67 5.4c-5.7-.85-8.07 3.46-7.12 9a14.59 14.59 0 0 1 8.78-5.93c5.23-1.37 4-4.45 4-4.45 4.39 3.35 10.1-4.28 4.87-7.71 2.56-.15 4-3.46 1.84-4.09 7.46 2.16 11.54-1 11.54-6.91-1.39 1.45-10.08 3.71-17.66 3.54z"/><path class="cls-2" d="M112.77 64.05a6.09 6.09 0 0 0-.06-.86h-.91l-1.15.06-1.25.1-1.18.13c0-.18.06-.36.09-.54a4 4 0 0 0 0-1.08c0-.18-.05-.36-.09-.54h12.66q-.05.27-.09.54a4 4 0 0 0 0 1.08q0 .27.09.54l-1.1-.13-1.22-.1-1.14-.06h-.91a2.41 2.41 0 0 0 0 .34v11.58q0 1.62.15 3.1a7.81 7.81 0 0 0-.91 0h-2.21a7.82 7.82 0 0 0-.91 0q.1-1.52.15-3.1t0-3.62v-6.14q0-.71-.01-1.3zm14.39 6.43v4.62q0 1.62.15 3.1a7.82 7.82 0 0 0-.91 0h-2.21a7.81 7.81 0 0 0-.91 0q.1-1.52.15-3.1t0-3.62v-6.95q0-1.62-.15-3.18l.91.09h1.1q.61 0 1.51-.06.85-.06 2.1-.06h1.6a9.12 9.12 0 0 1 1.14.15 4 4 0 0 1 .83.26 4.26 4.26 0 0 1 .67.38 3.8 3.8 0 0 1 1.59 3.24 4.29 4.29 0 0 1-1 2.92 5.36 5.36 0 0 1-2.82 1.6q1.18 2.09 2.53 4.16t2.7 4.11h-4.44l-4.39-7.73zm3.66-6.23a1.94 1.94 0 0 0-.67-1 2.56 2.56 0 0 0-1.18-.43 13.12 13.12 0 0 0-1.73-.1q-.07 3.34-.07 6.68h.54a3.33 3.33 0 0 0 2.48-.87A3.62 3.62 0 0 0 131 66a5.39 5.39 0 0 0-.18-1.75zm12.26 13.95a6.27 6.27 0 0 1-2.37-1.1 5.35 5.35 0 0 1-1.58-2 6.85 6.85 0 0 1-.58-3v-8.97q0-1.22-.07-1.84l1 .09h2l1-.09q-.25 2.38-.29 4.43t0 4.16a16.49 16.49 0 0 0 .32 3.61 5.07 5.07 0 0 0 .95 2.12 3 3 0 0 0 1.53 1 8.14 8.14 0 0 0 2.11.24 3.37 3.37 0 0 0 2.31-.74 4.57 4.57 0 0 0 1.26-2 10.48 10.48 0 0 0 .53-2.81q.1-1.58.1-3.3t0-3.37q0-1.68-.15-3.37l.66.09a5.09 5.09 0 0 0 .59 0 4.9 4.9 0 0 0 .61 0l.61-.09q0 .54-.1 1.45t-.1 2.1q-.05 1.19-.09 2.63t0 3q0 4.27-1.84 6.12a7.29 7.29 0 0 1-5.4 1.85 12.39 12.39 0 0 1-3.01-.21zm18.81-15.65a2.59 2.59 0 0 0-1.84.66 2.14 2.14 0 0 0-.16 3 5.86 5.86 0 0 0 1.39 1q.83.47 1.79.9a9.35 9.35 0 0 1 1.79 1.06 5.47 5.47 0 0 1 1.39 1.52 4.31 4.31 0 0 1 .55 2.3 5.33 5.33 0 0 1-.47 2.25A5 5 0 0 1 165 77a6 6 0 0 1-2 1.1 8.73 8.73 0 0 1-2.66.38 9.08 9.08 0 0 1-2.37-.28 4.56 4.56 0 0 1-1.58-.7q.25-.86.42-1.57t.29-1.55h.47a3.26 3.26 0 0 0 1.06 1.87 3 3 0 0 0 1 .58 4 4 0 0 0 1.33.21 2.87 2.87 0 0 0 2.17-.74 2.47 2.47 0 0 0 .7-1.77 2.16 2.16 0 0 0-.54-1.52 5.37 5.37 0 0 0-1.35-1q-.81-.45-1.77-.88a9.05 9.05 0 0 1-1.77-1 5.3 5.3 0 0 1-1.4-1.55 4.39 4.39 0 0 1-.54-2.29 5.32 5.32 0 0 1 .45-2.26 4.83 4.83 0 0 1 1.22-1.64 5.25 5.25 0 0 1 1.75-1A6.37 6.37 0 0 1 162 61a7.62 7.62 0 0 1 2.32.32 5.35 5.35 0 0 1 1.71.88q-.22.57-.38 1.09l-.41 1.34h-.37a2.94 2.94 0 0 0-2.98-2.08zm10.88 1.5a6.09 6.09 0 0 0-.06-.86h-.91l-1.15.06-1.25.1-1.18.13c0-.18.06-.36.09-.54a4 4 0 0 0 0-1.08c0-.18-.05-.36-.09-.54h12.66q-.05.27-.09.54a4 4 0 0 0 0 1.08q0 .27.09.54l-1.1-.13-1.22-.1-1.14-.06h-.91a2.41 2.41 0 0 0 0 .34v11.58q0 1.62.15 3.1a7.81 7.81 0 0 0-.91 0h-2.25a7.82 7.82 0 0 0-.91 0q.1-1.52.15-3.1t0-3.62v-6.14q.04-.71.03-1.3z"/><circle class="cls-2" cx="188.04" cy="70.19" r="2.17"/><circle class="cls-2" cx="101.85" cy="70.19" r="2.17"/><path class="cls-3" d="M95.32 46.79h1.28l.59-.05v3.85l1.14-1.33L99.4 48l1-1.24.39.05h.63l.31-.05v.1l-2 2.12-1.21 1.32 3.34 4.77v.17h-1.85l-2.81-3.91v3.91h-1.86zm19 5.87l-.59 1.64-.29.91h-1.17l3.54-8.53h.94l3.46 8.55h-2.14l-.42-1.32-.21-.65-.25-.61zm2.61-.75L115.8 49l-1.16 2.87zm13.86 3.26V55q1-1.55 2.25-3.55l2.14-3.59v-.16h-1.63l-2.25.09v-.51a1.05 1.05 0 0 0 0-.26v-.24h6.47V47q-.33.49-.9 1.42l-.59.93-1.42 2.41-1.39 2.42v.13h2.37l1.92-.07v.51a1.36 1.36 0 0 0 0 .31v.21zM151 51.68l-1-1.81-1.66-3.08h2.24l1.08 2.21c.22.46.37.77.45.92a2.91 2.91 0 0 0 .33.56 9.34 9.34 0 0 0 .93-1.65l.93-2h1.2l-.89 1.55-.89 1.53-.82 1.56v3.8h-1.87zm15.83-4.89h1.23l1.77 1.9 1.81 1.93 1.77 1.94v-5.77h.99v8.45h-1.06l-2.09-2.33-1.05-1.15-1-1.09-1.35-1.4v6h-1zm20.92 5.87l-.59 1.64-.29.91h-1.17l3.54-8.53h.94l3.46 8.55h-2.14l-.42-1.32-.21-.65-.25-.61zm2.61-.75L189.28 49l-1.16 2.87z"/><path class="cls-1" d="M180.74 24.47l1.08.07.75.06h.68l1.16-.11v7.69q1.06-1.22 2.26-2.65 1.77-2.11 2.13-2.56.57-.68 2-2.48l.77.11h1.24l.61-.11v.2l-4 4.22-2.33 2.58 6.6 9.51v.34h-.7l-1.15-.09h-1.08l-.76.07-5.58-7.81v7.81h-.7l-1.15-.09h-1.08l-.75.07zm-18.73 0l1.08.07.77.06h.68l1.15-.11v9.94a8.81 8.81 0 0 0 0 .93 5.84 5.84 0 0 0 .17.9 5.85 5.85 0 0 0 .4 1.47 3.54 3.54 0 0 0 .88 1.21A4 4 0 0 0 170 40a4.74 4.74 0 0 0 2.7-.67 5 5 0 0 0 1.65-2.33 4.86 4.86 0 0 0 .27-.88 6.3 6.3 0 0 0 .09-1.13l.07-3.07v-7.45l1 .07 1-.07v8.75a15.71 15.71 0 0 1-.35 4 5.25 5.25 0 0 1-2.26 3.17 6.12 6.12 0 0 1-2.13 1 9.51 9.51 0 0 1-2.51.35 12.71 12.71 0 0 1-2.36-.2 7.72 7.72 0 0 1-2-.67 5.09 5.09 0 0 1-2.77-3.26 11.31 11.31 0 0 1-.3-1.45l-.1-1.66zm-11.66 7.92h.65q3.22 0 3.22-3.54v-.61a4.67 4.67 0 0 0-.09-.62 2.07 2.07 0 0 0-1.13-1.56 5.09 5.09 0 0 0-1.9-.26h-.71zm-3.68-7.92h5.23c1.11 0 1.94 0 2.49.07a3.12 3.12 0 0 1 1.49.42 3.69 3.69 0 0 1 2.12 3.52 4.18 4.18 0 0 1-1 2.86 5.26 5.26 0 0 1-2.82 1.57q.93 1.6 2.68 4.32l1.66 2.58 1 1.52-1.28-.07h-2.27l-.93.07-2.92-5.16-1.6-2.72h-.17v7.88h-.7l-1.15-.09h-1.08l-.75.07zm-6.93 0l.59.11h.45l.52-.06.54-.07q.19 1.94.42 3.69t.29 2.52l.67 5.56c.06.59.14 1.22.24 1.9s.28 1.75.54 3.19l-1.11-.07h-2.06l-.86.07a47.8 47.8 0 0 0-.37-5.45l-.68-6-1.92 3.8-1.8 3.74-1.77 3.8h-.93l-1.68-3.51L129 34l-1.9-3.84-.52 4.05-.4 3.81-.12 3.31-.68-.09h-1.08l-.52.09.85-5.18.79-5.55.86-6.12.59.11h.41a2 2 0 0 0 .6-.06l.44-.07c.27.62.52 1.18.76 1.66l1.06 2.18 1.9 3.85L134 36l1.84-3.61 1.94-3.87zm-23.62 10.22l-2.2-5.69-2.31 5.72zm-5.12 1.5l-1.16 3.28-.57 1.81-1.15-.07-1.18.07 7-17 .94.07.94-.07 6.86 17.07-1.2-.07h-2.11l-.91.07-.83-2.63-.42-1.29c-.15-.39-.32-.79-.49-1.21zm-15.68 6.86h98.37v1.47H95.32zm0-21.9h98.37v1.47H95.32zm8.53 6.49a3.52 3.52 0 0 0-1.09-1.58 2.7 2.7 0 0 0-1.76-.56 2.87 2.87 0 0 0-2 .65 2.35 2.35 0 0 0-.68 1.77q0 1.31 1.92 2.39l3.62 2a4.77 4.77 0 0 1 1.94 3.92 4.85 4.85 0 0 1-1.8 3.9 7.08 7.08 0 0 1-4.69 1.52 7.78 7.78 0 0 1-2.11-.27 4.78 4.78 0 0 1-1.85-.78l.44-1.67.21-1.45h.47a3.38 3.38 0 0 0 1.18 2 3.44 3.44 0 0 0 2.22.72 3.2 3.2 0 0 0 2-.68 2.26 2.26 0 0 0 .84-1.87 3 3 0 0 0-1.9-2.6l-3.51-1.87a4.68 4.68 0 0 1-1.92-3.95 4.93 4.93 0 0 1 1.43-3.64 5.85 5.85 0 0 1 4.31-1.59 7.18 7.18 0 0 1 2.32.37 4.61 4.61 0 0 1 1.57.82l-.42 1.18-.37 1.26z"/><path class="cls-2" d="M95.32 43.05h98.37v1.47H95.32zm0 14.74h98.37v1.47H95.32zM43.17 27.23l-15-23.56 5.44-.31h1.57a16.18 16.18 0 0 1 3.3.3A6 6 0 0 1 42.22.17h.12l.75-.17.91.17a6 6 0 0 1 3.77 3.44 16.2 16.2 0 0 1 3.3-.3h1.57l5.42.31zM30.72 5l12.45 19.52L55.54 5l-3-.17h-1.48a13.73 13.73 0 0 0-3.53.39l-.62.16-.24-.59a4.87 4.87 0 0 0-3.06-3.16l-.53-.1-.49.1a4.87 4.87 0 0 0-3.06 3.16l-.24.59-.62-.16a13.71 13.71 0 0 0-3.53-.39h-1.48z"/><path class="cls-3" d="M33.79 6.55c4.5-.26 5.57.74 6.68 1.21.53-2.57 1.35-4.14 2.63-4.51h.06c1.28.37 2.06 1.94 2.63 4.51 1.12-.46 2.21-1.47 6.69-1.21l-9.32 14.71z"/><path class="cls-1" d="M47.09 19.68l-.4 4.88.65.1 2.4-9.17zm-10.63-4.33l2.22 9.35.65-.1-.33-5.23zm33.89 17.91l3.74-1.94q-.64-1.06-1.36-2.09l-6.39 4.87c1.42-.23 2.77-.53 4.01-.84zm5.3 8.98l2.68-.44c-.12-.51-.27-1-.41-1.54a8.15 8.15 0 0 1-2.27 1.98zM8.37 40.2c-.15.53-.3 1.06-.43 1.6l2.95.56a8.38 8.38 0 0 1-2.52-2.16zM19.51 34l-6-4.78q-.71 1-1.35 2.09l3.25 1.77c1.27.35 2.65.67 4.1.92zm22.16 45a6.27 6.27 0 0 1-.53-.46L40 85.92q1.23.11 2.49.13l-.15-6.56zm2.93 0l-.5.37-.32 6.68q1.24 0 2.49-.13l-1-7.55a6.9 6.9 0 0 1-.67.63z"/><path class="cls-2" d="M54.31 8.28l-2 3.23A39.66 39.66 0 0 1 77.67 30.8l2.33-.91v3.65a14 14 0 0 1-.13 1.83A39.5 39.5 0 1 1 3.63 49.94a39.26 39.26 0 0 1 2.8-14.58 13.37 13.37 0 0 1-.13-1.82v-3.63l2.29.9A39.66 39.66 0 0 1 34 11.51l-2-3.23a43.13 43.13 0 1 0 22.35 0z"/></svg>